#N canvas 694 236 584 396 12;
#X obj 113 145 +;
#X floatatom 91 117 5 0 0 0 - - - 0;
#X floatatom 138 118 5 0 0 0 - - - 0;
#X floatatom 112 177 5 0 0 0 - - - 0;
#X obj 115 10 bng 15 250 50 0 empty empty empty 17 7 0 10 #fcfcfc #000000
#000000;
#X floatatom 133 221 5 0 0 0 - - - 0;
#X floatatom 185 151 5 0 0 0 - - - 0;
#X floatatom 232 152 5 0 0 0 - - - 0;
#X text 261 62 Nothing working;
#X connect 0 0 3 0;
#X connect 1 0 0 0;
#X connect 1 0 6 0;
#X connect 2 0 0 1;
#X connect 2 0 7 0;
#X connect 3 0 5 0;
#X connect 4 0 1 0;
#X connect 4 0 2 0;
