#N canvas 659 152 695 602 12;
#X floatatom 37 201 5 0 0 0 - - - 0;
#X obj 24 270 osc~;
#X obj 76 342 *~;
#X floatatom 238 207 5 0 0 0 - - - 0;
#X obj 238 61 vsl 40 128 0 0.7 0 0 empty empty Amp 0 -9 0 10 #feffc6
#000000 #000000 0 1;
#X obj 44 157 hsl 128 30 0 3000 0 0 empty empty Frequency -2 -8 0 10
#c6ffc7 #000000 #000000 0 1;
#X obj 315 106 tgl 50 0 empty empty empty 17 7 0 10 #ff0400 #ffc7c6
#000000 0 1;
#X obj 315 173 select 1;
#X obj 201 480 vline~;
#X obj 189 105 bng 40 250 50 0 empty empty empty 17 7 0 10 #feffc6
#faff00 #000000;
#X obj 121 324 *~;
#X obj 13 47 vline~;
#X obj 18 234 +~;
#X msg 10 14 3 70 0 \, -1 200 70 \, 0 500 400;
#X obj 67 375 outlet~;
#X obj 151 43 inlet a;
#X obj 84 41 inlet b;
#X obj 240 18 inlet c;
#X obj 351 304 hsl 128 15 0 127 0 0 empty empty attack 90 8 0 10 #fcfcfc
#000000 #000000 0 1;
#X obj 351 324 hsl 128 15 0 127 0 0 empty empty sustain 85 8 0 10 #fcfcfc
#000000 #000000 0 1;
#X obj 350 343 hsl 128 15 0 127 0 0 empty empty release 85 8 0 10 #fcfcfc
#000000 #000000 0 1;
#X obj 261 407 pack 30 70 100 50;
#X obj 328 379 +;
#X msg 203 444 0.5 \$1 0 0 \, 0.2 \$2 \$1 \, 0 \$4 \$3;
#X obj 425 154 loadbang;
#X msg 424 187 30 70 50;
#X obj 427 269 unpack f f f;
#X obj 465 226 inlet d;
#X obj 302 319 cnv 15 40 40 empty empty empty 20 12 0 14 #ff8300 #404040
0;
#X connect 0 0 12 0;
#X connect 1 0 2 0;
#X connect 2 0 14 0;
#X connect 3 0 10 0;
#X connect 4 0 3 0;
#X connect 4 0 6 0;
#X connect 5 0 0 0;
#X connect 6 0 7 0;
#X connect 7 0 4 0;
#X connect 7 1 3 0;
#X connect 8 0 10 1;
#X connect 9 0 13 0;
#X connect 9 0 5 0;
#X connect 9 0 18 0;
#X connect 9 0 19 0;
#X connect 9 0 20 0;
#X connect 10 0 2 1;
#X connect 11 0 12 1;
#X connect 12 0 1 0;
#X connect 13 0 11 0;
#X connect 15 0 9 0;
#X connect 16 0 5 0;
#X connect 17 0 4 0;
#X connect 18 0 21 0;
#X connect 18 0 22 0;
#X connect 19 0 21 1;
#X connect 19 0 22 1;
#X connect 20 0 21 3;
#X connect 21 0 23 0;
#X connect 22 0 21 2;
#X connect 23 0 8 0;
#X connect 24 0 25 0;
#X connect 25 0 26 0;
#X connect 26 0 18 0;
#X connect 26 1 19 0;
#X connect 26 2 20 0;
#X connect 27 0 26 0;
#X coords 0 -1 500 500 185 60 1 300 300;
