#N canvas 159 509 376 317 12;
#X floatatom 99 238 0 0 0 0 - - - 0;
#X obj 99 150 cputime;
#X obj 99 94 metro 1000;
#X obj 99 122 t b b;
#X obj 99 210 * 0.1;
#X obj 99 179 int;
#X text 76 279 CPU load in percent;
#X obj 98 55 inlet;
#X obj 138 259 outlet;
#X connect 1 0 5 0;
#X connect 2 0 3 0;
#X connect 3 0 1 0;
#X connect 3 1 1 1;
#X connect 4 0 0 0;
#X connect 4 0 8 0;
#X connect 5 0 4 0;
#X connect 7 0 2 0;
