#N canvas 730 249 450 300 12;
#X obj 119 48 inlet;
#X obj 34 223 outlet;
#X msg 23 45 60000;
#X obj 48 138 /;
#X obj 68 76 t b f;
#X obj 47 170 / 4;
#X connect 0 0 4 0;
#X connect 2 0 3 0;
#X connect 3 0 5 0;
#X connect 4 0 3 0;
#X connect 4 1 3 1;
#X connect 5 0 1 0;
