#N canvas 0 26 1078 933 12;
#X floatatom 40 143 5 0 0 0 - - - 0;
#X obj 96 251 osc~;
#X obj 96 324 *~;
#X floatatom 259 159 5 0 0 0 - - - 0;
#X obj 253 225 vline~;
#X obj 164 251 *~;
#X msg 253 195 0.5 70 0 \, 0.2 200 200 \, 0 500 400;
#X obj 8 51 vline~;
#X obj 14 176 +~;
#X msg 8 21 3 70 0 \, -1 200 70 \, 0 500 400;
#X obj 118 377 outlet~;
#X obj 153 61 inlet b;
#X obj 313 84 inlet c;
#X obj 70 81 inlet a;
#X obj 31 246 osc~;
#X obj 32 290 *~ 0.5;
#X obj 94 286 *~ 0.5;
#X connect 0 0 8 0;
#X connect 0 0 14 0;
#X connect 1 0 16 0;
#X connect 2 0 10 0;
#X connect 3 0 5 0;
#X connect 4 0 5 1;
#X connect 5 0 2 1;
#X connect 6 0 4 0;
#X connect 7 0 8 1;
#X connect 8 0 1 0;
#X connect 9 0 7 0;
#X connect 11 0 9 0;
#X connect 11 0 6 0;
#X connect 12 0 3 0;
#X connect 13 0 0 0;
#X connect 14 0 15 0;
#X connect 15 0 2 0;
#X connect 16 0 2 0;
#X coords 0 0 0.25 0.25 0 0 0;
