#N canvas 1012 405 465 300 12;
#X obj 43 20 inlet~;
#X obj 39 238 outlet~;
#X obj 41 199 xfade~;
#X obj 263 124 hsl 128 15 0 1 0 0 empty empty empty -2 -8 0 10 #fcfcfc
#000000 #000000 0 1;
#X floatatom 358 102 5 0 0 0 - - - 0;
#X msg 296 48 30;
#X obj 301 20 loadbang;
#X obj 262 105 hsl 90 15 0 4000 0 0 empty empty empty -2 -8 0 10 #fcfcfc
#000000 #000000 0 1;
#X obj 74 54 delwrite~ delay_001 4000;
#X obj 77 83 delread~ delay_001 4000;
#X obj 69 143 bp~;
#X msg 90 114 300;
#X msg 142 120 2000;
#X obj 57 170 +~;
#X obj 250 13 inlet;
#X obj 280 179 inlet;
#X connect 0 0 2 0;
#X connect 0 0 8 0;
#X connect 0 0 13 0;
#X connect 2 0 1 0;
#X connect 3 0 2 2;
#X connect 5 0 7 0;
#X connect 6 0 5 0;
#X connect 7 0 4 0;
#X connect 7 0 9 0;
#X connect 9 0 10 0;
#X connect 10 0 13 1;
#X connect 11 0 10 1;
#X connect 12 0 10 2;
#X connect 13 0 2 1;
#X connect 14 0 7 0;
#X connect 15 0 3 0;
#X coords 0 -1 1 1 145 60 1 255 90;
