#N canvas 1026 226 654 570 12;
#X obj 160 446 *~ 0.3;
#X obj 158 479 outlet~;
#X obj 84 180 osc~;
#X obj 231 439 hsl 128 15 0 0.8 0 0 empty empty amp 60 8 0 10 #fcfcfc
#000000 #000000 0 1;
#X obj 201 36 inlet a;
#X obj 230 414 inlet b;
#X obj 65 76 hsl 128 15 0 127 0 0 empty empty mainFreq 50 8 0 10 #fcfcfc
#000000 #000000 0 1;
#X obj 146 180 osc~;
#X obj 148 139 hsl 128 15 0 127 0 0 empty empty empty -2 -8 0 10 #fcfcfc
#000000 #000000 0 1;
#X obj 80 254 *~;
#X obj 115 111 * 2;
#X obj 145 259 +~;
#X obj 118 327 xfade~;
#X obj 167 299 hsl 128 15 0 1 0 0 empty empty empty -2 -8 0 10 #fcfcfc
#000000 #000000 0 1;
#X obj 310 386 vline~;
#X obj 166 370 *~;
#X msg 312 350 0.5 \$1 0 0 \, 0.2 \$2 \$1 \, 0 \$4 \$3;
#X floatatom 313 270 5 0 0 0 - - - 0;
#X floatatom 367 261 5 0 0 0 - - - 0;
#X floatatom 439 264 5 0 0 0 - - - 0;
#X obj 401 290 +;
#X obj 372 206 bng 15 250 50 0 empty empty empty 17 7 0 10 #fcfcfc
#000000 #000000;
#X obj 316 320 pack 35 156 100 87;
#X connect 0 0 1 0;
#X connect 2 0 9 0;
#X connect 2 0 11 0;
#X connect 3 0 0 1;
#X connect 4 0 6 0;
#X connect 4 0 21 0;
#X connect 5 0 3 0;
#X connect 6 0 2 0;
#X connect 6 0 10 0;
#X connect 7 0 9 1;
#X connect 7 0 11 1;
#X connect 8 0 7 0;
#X connect 9 0 12 0;
#X connect 10 0 8 0;
#X connect 11 0 12 1;
#X connect 12 0 15 0;
#X connect 13 0 12 2;
#X connect 14 0 15 1;
#X connect 15 0 0 0;
#X connect 16 0 14 0;
#X connect 17 0 20 0;
#X connect 17 0 22 0;
#X connect 18 0 20 1;
#X connect 18 0 22 1;
#X connect 19 0 22 3;
#X connect 20 0 22 2;
#X connect 21 0 17 0;
#X connect 21 0 18 0;
#X connect 21 0 19 0;
#X connect 22 0 16 0;
