#N canvas 860 371 465 300 12;
#X obj 100 20 inlet~;
#X obj 100 275 outlet~;
#X obj 100 239 xfade~;
#X obj 141 198 hsl 128 15 0 1 0 0 empty empty empty -2 -8 0 10 #fcfcfc
#000000 #000000 0 1;
#X obj 120 52 Lop;
#X obj 120 125 Hip;
#X connect 0 0 2 0;
#X connect 0 0 4 0;
#X connect 2 0 1 0;
#X connect 3 0 2 2;
#X connect 4 0 5 0;
#X connect 5 0 2 1;
#X coords 0 -1 1 1 170 200 1 115 30;
