#N canvas 668 206 506 441 12;
#X obj 187 64 t b f;
#X obj 188 93 +;
#X floatatom 95 13 5 0 0 0 - - - 0;
#X floatatom 181 12 5 0 0 0 - - - 0;
#X obj 186 127 phasor~;
#X obj 89 116 osc~;
#X obj 120 186 xfade~;
#X obj 94 228 dac~;
#X obj 218 163 hsl 128 30 0 1 0 0 empty empty empty -2 -8 0 10 #ffc7c6
#000000 #000000 0 1;
#X connect 0 0 1 0;
#X connect 0 1 1 1;
#X connect 1 0 4 0;
#X connect 2 0 1 0;
#X connect 2 0 5 0;
#X connect 3 0 0 0;
#X connect 4 0 6 1;
#X connect 5 0 6 0;
#X connect 6 0 7 0;
#X connect 6 0 7 1;
#X connect 8 0 6 2;
