#N canvas 643 97 803 300 12;
#X obj 92 144 plus;
#X floatatom 159 87 5 0 0 0 - - - 0;
#X floatatom 151 256 5 0 0 0 - - - 0;
#X floatatom 227 103 5 0 0 0 - - - 0;
#X obj 105 52 bng 15 250 50 0 empty empty empty 17 7 0 10 #fcfcfc #000000
#000000;
#X obj 447 239 xfade~;
#X obj 395 82 osc~;
#X obj 443 123 *~ 0.5;
#X obj 499 87 phasor~;
#X obj 566 133 *~ 0.5;
#X obj 339 282 dac~;
#X obj 575 183 hsl 128 30 0 1 0 0 empty empty empty -2 -8 0 10 #ffc7c6
#000000 #000000 0 1;
#X floatatom 405 13 5 0 0 0 - - - 0;
#X floatatom 505 6 5 0 0 0 - - - 0;
#X obj 463 67 +;
#X connect 0 0 2 0;
#X connect 1 0 0 0;
#X connect 3 0 0 1;
#X connect 4 0 0 0;
#X connect 5 0 10 0;
#X connect 5 0 10 1;
#X connect 6 0 7 0;
#X connect 7 0 5 0;
#X connect 8 0 9 0;
#X connect 9 0 5 1;
#X connect 11 0 5 2;
#X connect 12 0 6 0;
#X connect 12 0 14 0;
#X connect 13 0 14 1;
#X connect 14 0 8 0;
