#N canvas 932 191 748 368 12;
#X obj 73 276 dac~;
#X obj 49 118 hsl 128 15 0 3000 0 0 empty empty empty -2 -8 0 10 #fcfcfc
#000000 #000000 0 1;
#X obj 244 46 bng 40 250 50 0 empty empty empty 17 7 0 10 #feffc6 #faff00
#000000;
#X obj 245 131 vsl 40 128 0 0.7 0 0 empty empty Amp 0 -9 0 10 #feffc6
#000000 #000000 0 1;
#X obj 330 136 tgl 50 0 empty empty empty 17 7 0 10 #ff0400 #ffc7c6
#000000 0 1;
#X obj 329 224 select 1;
#X obj 82 221 PolySineOsc;
#X obj 443 86 key;
#X floatatom 468 141 5 0 0 0 - - - 0;
#X connect 1 0 6 0;
#X connect 2 0 1 0;
#X connect 2 0 6 1;
#X connect 2 0 3 0;
#X connect 3 0 4 0;
#X connect 3 0 6 2;
#X connect 4 0 5 0;
#X connect 5 0 3 0;
#X connect 5 1 6 2;
#X connect 6 0 0 0;
#X connect 6 0 0 1;
#X connect 7 0 8 0;
